<?xml version="1.0" encoding="utf-8"?>
<!-- Generator: Adobe Illustrator 27.0.1, SVG Export Plug-In . SVG Version: 6.00 Build 0)  -->
<svg version="1.1" id="Calque_1" xmlns="http://www.w3.org/2000/svg" xmlns:xlink="http://www.w3.org/1999/xlink" x="0px" y="0px"
	 viewBox="0 0 920 190" style="enable-background:new 0 0 920 190;" xml:space="preserve">
<style type="text/css">
	.st0{fill:#020203;}
</style>
<g>
	<path class="st0" d="M60.13,190.22L63.5,53.98h-2.85L44.07,176.27h-5.96L16.61,53.98h-2.59l7,136.24H0.54L3.13,0.09h19.43
		l20.73,122.55h2.85L61.17,0.09h16.32l2.59,190.13H60.13z"/>
	<path class="st0" d="M120.76,189.81c-16.32,0-25.13-8.03-25.13-30.31V64.15c0-25.39,12.95-34.98,28.24-34.98
		c16.58,0,25.13,8.03,25.13,30.31v95.34C149,180.22,136.05,189.81,120.76,189.81z M120.76,46.79c-5.7,0-7,5.7-7,14.77v89.13
		c0,18.65,4.66,21.5,10.1,21.5c5.7,0,7-5.7,7-14.77V68.3C130.87,49.64,125.95,46.79,120.76,46.79z"/>
	<path class="st0" d="M162.48-0.91h27.46V12.3h-27.46V-0.91z M167.14,32.77v157.45h18.14V32.77H167.14z"/>
	<path class="st0" d="M251.6,157.94c0,22.28-13.21,31.87-28.76,31.87c-15.29,0-22.54-8.03-22.54-24.09
		c0-13.21,1.04-27.98,2.85-39.38h18.65c-13.21,25.39-16.58,33.68-16.58,39.12c0,4.66,4.92,6.74,17.62,6.74
		c8.55,0,10.62-5.18,10.62-11.92c0-25.65-34.46-70.99-34.46-98.97c0-23.06,13.21-32.13,28.76-32.13c13.47,0,19.95,7.77,19.95,23.84
		c0,10.36-0.52,22.28-2.85,36.01h-17.1c11.66-23.06,15.03-30.57,15.03-35.75c0-4.66-4.14-6.48-15.03-6.48
		c-8.55,0-10.62,4.66-10.62,11.4C217.14,80.22,251.6,135.4,251.6,157.94z"/>
	<path class="st0" d="M283.21,150.69c0,18.65,6.74,21.5,13.99,21.5c7.77,0,11.14-9.85,11.66-26.43l0.78-30.31h3.63l0.78,31.09
		c0.52,24.61-7.77,43.27-25.13,43.27c-15.8,0-23.84-8.03-23.84-30.31V64.41c0-25.65,11.92-35.24,27.46-35.24
		c14.25,0,21.76,8.03,21.76,30.57v41.45h-31.09V150.69z M283.21,61.82v35.75h15.55V68.3c0-18.91-2.85-21.5-8.03-21.5
		C284.51,46.79,283.21,52.49,283.21,61.82z"/>
	<path class="st0" d="M388.4,173.38h27.98v16.84h-47.41V1.09h19.43V173.38z"/>
	<path class="st0" d="M471.31,144.99l-2.59-0.52c-5.44,38.86-14.25,45.34-24.1,45.34c-9.59,0-16.58-8.03-16.58-20.99V31.77h18.14
		v126.95c0,9.33,1.29,13.47,6.22,13.47c7.26,0,12.7-17.88,12.7-41.97V31.77h18.14v158.45h-18.14"/>
	<path class="st0" d="M548.78,99.28l11.92,90.94h-19.69l-5.18-59.85c-1.56-18.39-5.96-23.06-15.29-22.02
		c-0.52,4.4-0.78,8.55-0.78,13.47v68.4h-18.14V1.09h18.14v20.99l-6.22,76.43l2.59,0.52l18.91-64.25h23.32v16.06l-5.7,1.55
		c-11.14,3.11-16.84,10.62-25.13,31.09c-2.85,6.99-4.66,12.43-5.7,17.88l1.29,1.29L548.78,99.28z"/>
	<path class="st0" d="M589.2,150.69c0,18.65,6.74,21.5,13.99,21.5c7.77,0,11.14-9.85,11.66-26.43l0.78-30.31h3.63l0.78,31.09
		c0.52,24.61-7.77,43.27-25.13,43.27c-15.8,0-23.84-8.03-23.84-30.31V64.41c0-25.65,11.92-35.24,27.46-35.24
		c14.25,0,21.76,8.03,21.76,30.57v41.45H589.2V150.69z M589.2,61.82v35.75h15.55V68.3c0-18.91-2.85-21.5-8.03-21.5
		C590.5,46.79,589.2,52.49,589.2,61.82z"/>
	<path class="st0" d="M696.2,145.77c0,31.09-7.51,44.04-24.09,44.04c-10.36,0-20.47-5.96-27.72-15.29l-2.33,0.52l-1.56,15.18h-4.66
		l5.18-45.49V-1.91h17.88v36.53L652.94,74l2.59,0.52c5.44-38.86,14.25-45.34,24.09-45.34c9.59,0,16.58,8.03,16.58,20.99V145.77z
		 M677.55,60.27c0-9.33-2.33-13.47-6.74-13.47c-5.7,0-11.66,17.62-11.66,41.45v79.8c3.37,3.37,7,5.18,11.14,5.18
		c4.92,0,7.25-3.63,7.25-25.91V60.27z"/>
	<path class="st0" d="M728.85,189.81c-9.85,0-15.03-5.96-15.03-18.39v-17.88c0-20.99,10.88-29.28,31.35-48.45V57.16
		c0-8.29-2.07-10.36-10.62-10.36c-13.47,0-16.84,5.7-16.84,14.77c0,10.88,4.4,20.47,25.65,41.97h-24.87
		c-5.18-12.44-6.74-27.21-6.74-39.12c0-16.32,12.7-35.24,29.02-35.24c15.03,0,22.54,8.03,22.54,21.24v106.23
		c0,13.99,2.59,15.55,5.44,15.55c2.33,0,4.14-1.56,4.4-10.1l0.78-45.34h3.63l0.78,44.3c0.26,16.32-2.33,28.76-14.51,28.76
		c-10.62,0-15.29-7.51-12.18-44.3l-2.59-0.52C745.17,183.59,738.7,189.81,728.85,189.81z M736.36,170.9c5.7,0,8.81-15.8,8.81-39.64
		v-20.73c-11.4,10.88-13.21,17.36-13.21,28.24v25.91C731.96,169.34,733.78,170.9,736.36,170.9z"/>
	<path class="st0" d="M809.43,34.77v2.85L803.21,77l2.59,0.52c5.44-38.86,14.25-45.34,24.09-45.34c9.59,0,16.58,8.03,16.58,20.99
		v137.06h-18.14V63.27c0-9.33-1.29-13.47-6.22-13.47c-7.25,0-12.7,17.88-12.7,41.97v98.45h-18.14V34.77H809.43z"/>
	<path class="st0" d="M907.88,144.99l-2.59-0.52c-5.44,38.86-14.25,45.34-24.09,45.34c-9.59,0-16.58-8.03-16.58-20.99V31.77h18.14
		v126.95c0,9.33,1.3,13.47,6.22,13.47c7.25,0,12.7-12.54,12.7-41.97V31.77h18.14v158.45h-18.14"/>
</g>
</svg>
